<svg width="96" height="96" viewBox="0 0 96 96" fill="none" xmlns="http://www.w3.org/2000/svg">
<path d="M14.25 27.1875V68.8125H34.3594C36.2227 68.8125 49.0547 68.4346 49.0547 56.7188C49.0547 49.3975 44.0186 46.9102 41.4609 46.1719C43.3418 45.2842 47.0859 43.1748 47.0859 37.5234C47.0859 34.377 46.6377 27.1875 33.7969 27.1875H14.25ZM60.0937 31.0547V34.8516H75.6328V31.0547H60.0937ZM23.3906 34.2891H31.9687C32.7773 34.2891 38.2266 33.8584 38.2266 39.0703C38.2266 43.5264 34.2891 43.9922 32.6719 43.9922H23.3906V34.2891ZM68.25 38.2969C56.499 38.2969 54.0469 48.501 54.0469 52.9219C54.0469 66.0439 64.8047 67.5469 68.25 67.5469C77.54 67.5469 80.1768 61.5352 81.2578 58.1953H74.5078C74.2441 59.0566 72.2754 61.8516 68.5312 61.8516C62.2559 61.8516 61.7109 56.9473 61.7109 54.75H81.6797C82.084 47.1562 78.7617 38.2969 68.25 38.2969ZM68.0391 43.9922C69.9111 43.9922 71.4228 44.5371 72.3281 45.5391C73.2334 46.5498 73.9014 48.0264 74.0859 49.9688H61.7109C61.7461 49.4326 61.8691 48.8174 62.0625 48.1406C62.2559 47.4463 62.5547 46.7871 63.0469 46.1719C63.5391 45.5654 64.2246 45.0381 65.0156 44.625C65.8242 44.2031 66.8262 43.9922 68.0391 43.9922ZM23.3906 50.25H33.3047C35.2734 50.25 39.9141 50.5576 39.9141 56.2266C39.9141 61.7197 34.0693 61.7109 33.1641 61.7109H23.3906V50.25Z" fill="white"/>
<rect x="3" y="3" width="90" height="90" rx="13" stroke="white" stroke-width="6"/>
</svg>
