<svg width="96" height="96" viewBox="0 0 96 96" fill="none" xmlns="http://www.w3.org/2000/svg">
<path d="M47.9999 23.16V38.28H40.4399C36.2765 38.28 32.8799 34.8834 32.8799 30.72C32.8799 26.5566 36.2765 23.16 40.4399 23.16H47.9999Z" fill="#C30021"/>
<path d="M47.9999 40.4401V55.5601H40.4399C36.2765 55.5601 32.8799 52.1635 32.8799 48.0001C32.8799 43.8367 36.2765 40.4401 40.4399 40.4401H47.9999Z" fill="#C30021"/>
<path d="M47.9999 57.72V65.28C47.9999 69.4434 44.6033 72.84 40.4399 72.84C36.2765 72.84 32.8799 69.4434 32.8799 65.28C32.8799 61.1166 36.2765 57.72 40.4399 57.72H47.9999Z" fill="#C30021"/>
<path d="M65.2799 30.72C65.2799 34.8834 61.8833 38.28 57.7199 38.28H50.1599V23.16H57.7199C61.8833 23.16 65.2799 26.5566 65.2799 30.72Z" fill="#C30021"/>
<path d="M57.7199 55.5601C61.8952 55.5601 65.2799 52.1753 65.2799 48.0001C65.2799 43.8248 61.8952 40.4401 57.7199 40.4401C53.5446 40.4401 50.1599 43.8248 50.1599 48.0001C50.1599 52.1753 53.5446 55.5601 57.7199 55.5601Z" fill="#C30021"/>
<path d="M47.9999 23.16V38.28H40.4399C36.2765 38.28 32.8799 34.8834 32.8799 30.72C32.8799 26.5566 36.2765 23.16 40.4399 23.16H47.9999Z" fill="#C30021"/>
<path d="M47.9999 40.4401V55.5601H40.4399C36.2765 55.5601 32.8799 52.1635 32.8799 48.0001C32.8799 43.8367 36.2765 40.4401 40.4399 40.4401H47.9999Z" fill="#C30021"/>
<path d="M47.9999 57.72V65.28C47.9999 69.4434 44.6033 72.84 40.4399 72.84C36.2765 72.84 32.8799 69.4434 32.8799 65.28C32.8799 61.1166 36.2765 57.72 40.4399 57.72H47.9999Z" fill="#C30021"/>
<path d="M65.2799 30.72C65.2799 34.8834 61.8833 38.28 57.7199 38.28H50.1599V23.16H57.7199C61.8833 23.16 65.2799 26.5566 65.2799 30.72Z" fill="#C30021"/>
<path d="M57.7199 55.5601C61.8952 55.5601 65.2799 52.1753 65.2799 48.0001C65.2799 43.8248 61.8952 40.4401 57.7199 40.4401C53.5446 40.4401 50.1599 43.8248 50.1599 48.0001C50.1599 52.1753 53.5446 55.5601 57.7199 55.5601Z" fill="#C30021"/>
<rect x="3" y="3" width="90" height="90" stroke="#C30021" stroke-width="6"/>
<rect x="3" y="3" width="90" height="90" stroke="#C30021" stroke-width="6"/>
</svg>
