<svg width="54" height="54" viewBox="0 0 54 54" fill="none" xmlns="http://www.w3.org/2000/svg">
<path d="M26.8 7.7998C16.8595 7.7998 8.80005 15.9855 8.80005 26.0816C8.80005 34.6482 14.608 41.8162 22.438 43.7998C22.354 43.553 22.3 43.2666 22.3 42.9116V39.7869C21.5695 39.7869 20.3455 39.7869 20.038 39.7869C18.8065 39.7869 17.7115 39.2491 17.1805 38.2497C16.591 37.1391 16.489 35.4404 15.028 34.4014C14.5945 34.0556 14.9245 33.661 15.424 33.7143C16.3465 33.9794 17.1115 34.6223 17.8315 35.576C18.5485 36.5312 18.886 36.7476 20.2255 36.7476C20.875 36.7476 21.847 36.7095 22.762 36.5632C23.254 35.2942 24.1045 34.1257 25.144 33.5742C19.15 32.948 16.2895 29.9193 16.2895 25.8074C16.2895 24.0371 17.032 22.3247 18.2935 20.882C17.8795 19.4499 17.359 16.5294 18.4525 15.4172C21.1495 15.4172 22.78 17.1936 23.1715 17.6735C24.5155 17.2058 25.9915 16.9407 27.5425 16.9407C29.0965 16.9407 30.5785 17.2058 31.9255 17.6766C32.3125 17.1997 33.9445 15.4172 36.6475 15.4172C37.7455 16.5309 37.219 19.4636 36.8005 20.8927C38.0545 22.3323 38.7926 24.0402 38.7926 25.8074C38.7926 29.9163 35.9365 32.9434 29.9515 33.5726C31.5985 34.4456 32.8 36.8984 32.8 38.7464V42.9116C32.8 43.0701 32.7655 43.1843 32.7475 43.3199C39.7615 40.8229 44.8 34.0586 44.8 26.0816C44.8 15.9855 36.7405 7.7998 26.8 7.7998Z" fill="white"/>
<rect x="1.5" y="1.5" width="51" height="51" rx="6.5" stroke="white" stroke-width="3"/>
</svg>
