<svg width="96" height="96" viewBox="0 0 96 96" fill="none" xmlns="http://www.w3.org/2000/svg">
<path d="M76.8 78.7201L49.92 86.4001L23.04 78.7201L17.28 13.4401H82.56C80.64 35.1994 78.72 56.9607 76.8 78.7201ZM78.3668 17.2801H21.4733L26.6323 75.7537L49.92 82.4065L73.2077 75.7537L78.3668 17.2801Z" fill="#C30021"/>
<path d="M66.7199 44.16L64.8191 67.2L49.9007 71.04L35.0015 67.2L34.2527 57.6H41.6639L42.0095 61.44L49.9199 62.6304L57.9263 61.44L58.7135 51.84H33.7727L35.6159 28.8H65.2799L66.6239 40.32H59.5199L59.0783 36.48H43.0271L42.4127 44.16H66.7199Z" fill="#C30021"/>
</svg>
