<svg width="96" height="96" viewBox="0 0 96 96" fill="none" xmlns="http://www.w3.org/2000/svg">
<path d="M0 48V96H48H96V48V0H48H0V48ZM90 48V90H48H6V48V6H48H90V48Z" fill="#C30021"/>
<path d="M69.75 23.775C66 25.125 64.65 30.075 67.35 32.475C68.775 33.75 73.2 34.2 74.7 33.15C76.575 31.875 77.4 29.175 76.5 27C75.375 24.225 72.375 22.8 69.75 23.775Z" fill="#C30021"/>
<path d="M26.1001 48.9L18.9751 72.375L24.2251 72.6C27.3001 72.75 29.7001 72.525 30.0001 72.075C30.2251 71.625 31.0501 68.925 31.8001 66L33.1501 60.75H40.1251H47.0251L48.7501 66.75L50.4751 72.75H55.9501C59.9251 72.75 61.5001 72.45 61.5001 71.775C61.5001 71.325 58.3501 60.75 54.4501 48.375L47.4751 25.875L40.3501 25.65L33.3001 25.425L26.1001 48.9ZM45.0001 51.9C45.0001 52.275 42.8251 52.5 40.1251 52.5C36.7501 52.5 35.2501 52.2 35.2501 51.525C35.2501 50.7 38.3251 38.55 39.5251 34.875C39.8251 33.825 40.8001 36.3 42.4501 42.375C43.8751 47.325 45.0001 51.6 45.0001 51.9Z" fill="#C30021"/>
<path d="M66 55.5V72.75H71.25H76.5V55.5V38.25H71.25H66V55.5Z" fill="#C30021"/>
</svg>
