<svg width="96" height="96" viewBox="0 0 96 96" fill="none" xmlns="http://www.w3.org/2000/svg">
<path d="M33.6 72.0002H21.6V36.0002H33.6V72.0002ZM27.6024 31.2002C24.2832 31.2002 21.6 28.5098 21.6 25.1978C21.6 21.8858 24.288 19.2002 27.6024 19.2002C30.9096 19.2002 33.6 21.8906 33.6 25.1978C33.6 28.5098 30.9096 31.2002 27.6024 31.2002ZM76.8 72.0002H65.2632V54.4802C65.2632 50.3018 65.184 44.9282 59.2656 44.9282C53.2584 44.9282 52.3344 49.4786 52.3344 54.1778V72.0002H40.8V35.9738H51.8736V40.8962H52.0296C53.5704 38.0642 57.336 35.0786 62.952 35.0786C74.64 35.0786 76.8 42.5402 76.8 52.241C76.8 52.241 76.8 72.0002 76.8 72.0002Z" fill="white"/>
<rect x="3" y="3" width="90" height="90" rx="13" stroke="white" stroke-width="6"/>
</svg>
