<svg width="96" height="96" viewBox="0 0 96 96" fill="none" xmlns="http://www.w3.org/2000/svg">
<path d="M0 48V96H48H96V48V0H48H0V48ZM90 48V90H48H6V48V6H48H90V48Z" fill="#C30021"/>
<path d="M22.125 23.925L17.625 24.375L17.4 48.15L17.25 72H22.5H27.75V63.375V54.75H32.1C34.5 54.75 38.25 54.225 40.35 53.625C54.375 49.425 55.8 30.675 42.45 25.125C39.15 23.775 29.1 23.175 22.125 23.925ZM38.7 33.825C41.025 36 41.475 38.475 40.2 41.625C38.85 44.775 35.025 46.725 30.9 46.35L28.125 46.125L27.9 39.225C27.75 33.15 27.825 32.325 29.025 31.95C31.65 31.2 37.05 32.25 38.7 33.825Z" fill="#C30021"/>
<path d="M62.7002 36.825C58.8002 37.725 55.5752 40.2 54.3002 43.2C51.6752 49.5 53.7752 53.4 62.0252 57.525C67.8752 60.525 68.8502 61.65 67.5002 63.75C66.6002 65.175 60.6002 65.025 56.9252 63.45L54.1502 62.325L53.7752 64.425C53.5502 65.625 53.1002 67.425 52.8752 68.4C52.4252 70.05 52.7252 70.35 55.5752 71.25C60.6002 72.9 68.7752 72.6 72.5252 70.65C76.7252 68.475 78.3752 65.85 78.3752 61.425C78.3752 56.475 76.5002 54.15 69.5252 50.775C63.4502 47.85 62.1752 45.9 65.2502 44.25C66.8252 43.425 71.2502 43.875 73.7252 45.15C75.0752 45.825 75.6752 44.925 76.8002 40.275C77.1752 38.55 77.0252 38.1 75.6002 37.575C72.6752 36.525 65.7752 36.075 62.7002 36.825Z" fill="#C30021"/>
</svg>
