<svg xmlns="http://www.w3.org/2000/svg" viewBox="0 0 335.25 82.31"><defs><style>.cls-1{fill:#212529;}.cls-2{fill:#c30021;}</style></defs><g id="Livello_2" data-name="Livello 2"><g id="Livello_1-2" data-name="Livello 1"><path class="cls-1" d="M123.36,41.59q0,8.85-8.38,8.85-8,0-8-8.51V29.08h3.49V41.21q0,6.2,4.8,6.19,4.64,0,4.63-6V29.08h3.49Z"/><path class="cls-1" d="M144,50.09h-4.18l-4.31-7.7a10.51,10.51,0,0,1-.42-1H135c-.09.21-.23.55-.44,1l-4.44,7.7H126l6.88-10.56-6.33-10.45h4.27l3.79,7.09a14.88,14.88,0,0,1,.66,1.41h.05c.28-.62.52-1.11.73-1.47l3.94-7h3.93L137.4,39.5Z"/><path class="cls-1" d="M157,29.08l-10.15,24.5h-3.09l10.11-24.5Z"/><path class="cls-1" d="M175.46,41.59q0,8.85-8.39,8.85-8,0-8-8.51V29.08h3.49V41.21q0,6.2,4.81,6.19c3.08,0,4.63-2,4.63-6V29.08h3.49Z"/><path class="cls-1" d="M184,50.09h-3.59v-21H184Z"/><path class="cls-1" d="M197.39,50.09v-21h6.07q11.61,0,11.62,10.24a10.09,10.09,0,0,1-3.23,7.82,12.27,12.27,0,0,1-8.64,3ZM200.86,32V47.15h2.79a7.81,7.81,0,0,0,5.72-2,7.71,7.71,0,0,0,2-5.72q0-7.36-7.63-7.37Z"/><path class="cls-1" d="M230.71,50.09H218.92v-21h11.32v3H222.4v6h7.23v2.94H222.4v6.22h8.31Z"/><path class="cls-1" d="M233.48,49.26V45.67a6.28,6.28,0,0,0,1.15.79,9.42,9.42,0,0,0,1.42.59,11.63,11.63,0,0,0,1.49.38,8.87,8.87,0,0,0,1.38.13,5.93,5.93,0,0,0,3.27-.73,2.42,2.42,0,0,0,1.08-2.13,2.33,2.33,0,0,0-.36-1.3,3.8,3.8,0,0,0-1-1,11.12,11.12,0,0,0-1.52-.87c-.58-.28-1.2-.57-1.87-.87s-1.37-.77-2-1.16a8.32,8.32,0,0,1-1.6-1.3,5.34,5.34,0,0,1-1.07-1.6,5.25,5.25,0,0,1-.39-2.1,4.78,4.78,0,0,1,.67-2.57,5.57,5.57,0,0,1,1.75-1.8,8,8,0,0,1,2.49-1.06,11.74,11.74,0,0,1,2.84-.34,11.46,11.46,0,0,1,4.81.75v3.44a7.7,7.7,0,0,0-4.6-1.29,8.06,8.06,0,0,0-1.55.15,4.34,4.34,0,0,0-1.38.48,3.05,3.05,0,0,0-1,.86,2.18,2.18,0,0,0-.38,1.28,2.5,2.5,0,0,0,.29,1.22,3.26,3.26,0,0,0,.86.93,8.67,8.67,0,0,0,1.38.83c.54.27,1.17.56,1.88.87s1.43.78,2.08,1.2a9.55,9.55,0,0,1,1.71,1.4,6.09,6.09,0,0,1,1.17,1.69,5,5,0,0,1,.43,2.12,5.23,5.23,0,0,1-.64,2.69,5.14,5.14,0,0,1-1.74,1.79,7.72,7.72,0,0,1-2.51,1,14.53,14.53,0,0,1-3,.3,11.08,11.08,0,0,1-1.3-.08c-.51,0-1-.13-1.58-.23s-1-.23-1.52-.37A5.36,5.36,0,0,1,233.48,49.26Z"/><path class="cls-1" d="M254.36,50.09h-3.59v-21h3.59Z"/><path class="cls-1" d="M275.93,48.66a15,15,0,0,1-7.31,1.78,10.14,10.14,0,0,1-7.54-2.9,10.38,10.38,0,0,1-2.89-7.68,10.75,10.75,0,0,1,3.16-8,10.9,10.9,0,0,1,8-3.13,15,15,0,0,1,5.89,1v3.59a10.17,10.17,0,0,0-5.76-1.61,7.34,7.34,0,0,0-5.5,2.21,7.91,7.91,0,0,0-2.15,5.73,8.28,8.28,0,0,0,1.85,5.7,6.37,6.37,0,0,0,5,2.07,8,8,0,0,0,3.75-.83v-5H268V38.68h7.89Z"/><path class="cls-1" d="M298.28,50.09h-3.81l-10-15.44a7.42,7.42,0,0,1-.63-1.22h-.08a23.76,23.76,0,0,1,.11,2.89V50.09h-3.37v-21h4.06l9.7,15.08a12.55,12.55,0,0,1,.79,1.29h.06a18.64,18.64,0,0,1-.14-2.83V29.08h3.35Z"/><path class="cls-1" d="M315.28,50.09h-11.8v-21h11.33v3H307v6h7.22v2.94H307v6.22h8.31Z"/><path class="cls-1" d="M335.25,50.09h-4.07l-3.36-5.62a12.79,12.79,0,0,0-.88-1.33,5.4,5.4,0,0,0-.88-.9,2.79,2.79,0,0,0-1-.51,4,4,0,0,0-1.19-.17h-1.4v8.53H319v-21h6.91a10.2,10.2,0,0,1,2.73.35,6.56,6.56,0,0,1,2.17,1.06,5.1,5.1,0,0,1,1.44,1.78,5.52,5.52,0,0,1,.52,2.48,6.16,6.16,0,0,1-.33,2,5.17,5.17,0,0,1-.94,1.65,5.68,5.68,0,0,1-1.46,1.24,7.59,7.59,0,0,1-1.93.79v.06a5.41,5.41,0,0,1,1,.71c.28.26.55.52.8.8a8.24,8.24,0,0,1,.76.93c.25.35.52.75.82,1.21ZM322.49,31.91v6.83h2.9a4.48,4.48,0,0,0,1.49-.25,3.64,3.64,0,0,0,1.18-.72,3.15,3.15,0,0,0,.77-1.14,3.87,3.87,0,0,0,.28-1.51,3,3,0,0,0-.95-2.36,4,4,0,0,0-2.74-.85Z"/><path class="cls-2" d="M15.31,38.22,46.22,7.32a2.26,2.26,0,0,0,0-3.19L42.75.66a2.26,2.26,0,0,0-3.19,0L5.46,34.76l-4.8,4.8a2.26,2.26,0,0,0,0,3.19l3.47,3.47,32,32,3.47,3.47a2.26,2.26,0,0,0,3.19,0l4.8-4.8,34.1-34.1a2.26,2.26,0,0,0,0-3.19l-3.47-3.47a2.26,2.26,0,0,0-3.19,0L44.08,67a2.24,2.24,0,0,1-3.19,0L15.31,41.42A2.27,2.27,0,0,1,15.31,38.22Z"/><path class="cls-2" d="M33.51,34.76,50.12,18.15a2.27,2.27,0,0,0,0-3.2l-.71-.7a2.26,2.26,0,0,0-3.19,0L26.71,33.76l-3.31,3.3a2.27,2.27,0,0,0,0,3.2l.7.71,8.4,8.4.71.7a2.27,2.27,0,0,0,3.2,0l3.3-3.31L53,33.46a1.83,1.83,0,0,1,2.6,0l2.6,2.6a1.83,1.83,0,0,1,0,2.6L41.61,55.27a2.27,2.27,0,0,0,0,3.2l.7.71a2.27,2.27,0,0,0,3.2,0L65,39.67l3.31-3.31a2.27,2.27,0,0,0,0-3.2l-.71-.7-8.4-8.4-.7-.71a2.27,2.27,0,0,0-3.2,0L52,26.66,38.71,40a1.83,1.83,0,0,1-2.6,0l-2.6-2.6A1.83,1.83,0,0,1,33.51,34.76Z"/></g></g></svg>