<svg xmlns="http://www.w3.org/2000/svg" viewBox="0 0 82.31 82.31"><defs><style>.cls-1{fill:#c30021;}</style></defs><g id="Livello_2" data-name="Livello 2"><g id="Livello_1-2" data-name="Livello 1"><path class="cls-1" d="M15.31,38.22,46.22,7.32a2.26,2.26,0,0,0,0-3.19L42.75.66a2.26,2.26,0,0,0-3.19,0L5.46,34.76l-4.8,4.8a2.26,2.26,0,0,0,0,3.19l3.47,3.47,32,32,3.47,3.47a2.26,2.26,0,0,0,3.19,0l4.8-4.8,34.1-34.1a2.26,2.26,0,0,0,0-3.19l-3.47-3.47a2.26,2.26,0,0,0-3.19,0L44.08,67a2.24,2.24,0,0,1-3.19,0L15.31,41.42A2.27,2.27,0,0,1,15.31,38.22Z"/><path class="cls-1" d="M33.51,34.76,50.12,18.15a2.27,2.27,0,0,0,0-3.2l-.71-.7a2.26,2.26,0,0,0-3.19,0L26.71,33.76l-3.31,3.3a2.27,2.27,0,0,0,0,3.2l.7.71,8.4,8.4.71.7a2.27,2.27,0,0,0,3.2,0l3.3-3.31L53,33.46a1.83,1.83,0,0,1,2.6,0l2.6,2.6a1.83,1.83,0,0,1,0,2.6L41.61,55.27a2.27,2.27,0,0,0,0,3.2l.7.71a2.27,2.27,0,0,0,3.2,0L65,39.67l3.31-3.31a2.27,2.27,0,0,0,0-3.2l-.71-.7-8.4-8.4-.7-.71a2.27,2.27,0,0,0-3.2,0L52,26.66,38.71,40a1.83,1.83,0,0,1-2.6,0l-2.6-2.6A1.83,1.83,0,0,1,33.51,34.76Z"/></g></g></svg>